<svg width="521" height="176" viewBox="0 0 521 176" fill="none" xmlns="http://www.w3.org/2000/svg">
<mask id="mask0_1_16" style="mask-type:luminance" maskUnits="userSpaceOnUse" x="30" y="21" width="428" height="119">
<path d="M457.703 21.6351H30V139.365H457.703V21.6351Z" fill="white"/>
</mask>
<g mask="url(#mask0_1_16)">
<path d="M331.712 73.3397H293.609L301.115 60.3254L331.718 60.3041V73.3397H331.712ZM318.095 73.3397C315.246 87.9866 302.987 99.0264 288.349 99.0264C270.027 99.0264 255.228 83.6146 256.218 65.0614C257.105 48.4615 270.952 35.0189 287.557 34.6175C292.428 34.4998 297.068 35.4737 301.244 37.3092L307.574 26.3336C299.325 22.0525 289.584 20.4311 279.362 22.5823C259.591 26.7403 244.595 43.6613 243.301 63.8412C241.617 90.143 262.43 112.004 288.349 112.004C304.917 112.004 319.32 102.355 326.649 88.1685L318.095 73.3397Z" fill="black"/>
<path d="M444.788 110.163V78.2631C444.788 68.7002 439.001 62.9154 431.464 62.9154C428.073 62.9154 424.364 63.7824 421.283 65.7998L429.625 51.3405C431.239 51.0087 432.8 50.8321 434.202 50.8321C449.032 50.8321 457.83 60.7695 457.709 77.5031V110.157H444.791L444.788 110.163ZM402.775 58.3027V110.163H415.693V50.8375L402.775 58.3027Z" fill="black"/>
<path d="M42.9166 23.476H30V110.163H42.9166V23.476ZM104.543 23.476H91.6268V110.163H104.543V23.476Z" fill="black"/>
<path d="M85.0882 64.0607L54.8763 46.6045C52.7591 45.3791 50.1074 46.9096 50.1074 49.3605V84.2782C50.1074 86.7289 52.7538 88.2594 54.8763 87.034L85.0882 69.578C87.2053 68.3526 87.2053 65.2916 85.0882 64.0659V64.0607Z" fill="#A34CDB"/>
<path d="M205.674 86.638L213.18 99.6523L190.271 139.365H175.259L198.167 99.6523L171.072 52.6783H186.085L205.674 86.638ZM240.275 52.6783H225.262L205.674 86.638H220.686L240.275 52.6783Z" fill="black"/>
<path d="M135.044 110.88C144.865 113.518 154.157 111.324 161.219 106.229L155.119 95.6551C151.933 98.288 147.859 99.8773 143.405 99.8773C135.236 99.8773 128.318 94.5527 125.891 87.1893H173.398C173.756 85.3161 173.96 83.3896 173.96 81.415C173.96 64.5264 160.278 50.8321 143.405 50.8321C134.734 50.8321 126.923 54.4657 121.357 60.2773L127.848 71.5257C131.12 66.3777 136.856 62.953 143.405 62.953C151.564 62.953 158.477 68.2613 160.909 75.6142H113.418C112.055 82.7208 112.921 90.6355 118.641 98.9836C122.571 104.72 128.334 109.076 135.044 110.88Z" fill="black"/>
<path d="M357.423 110.88C367.244 113.518 376.536 111.324 383.597 106.229L377.497 95.6551C374.311 98.288 370.237 99.8773 365.784 99.8773C357.616 99.8773 350.697 94.5527 348.27 87.1893H395.777C396.136 85.3161 396.339 83.3896 396.339 81.415C396.339 64.5264 382.656 50.8321 365.784 50.8321C357.113 50.8321 349.302 54.4657 343.736 60.2773L350.227 71.5257C353.498 66.3777 359.237 62.953 365.784 62.953C373.942 62.953 380.855 68.2613 383.29 75.6142H335.797C334.433 82.7208 335.3 90.6355 341.02 98.9836C344.95 104.72 350.713 109.076 357.423 110.88Z" fill="black"/>
</g>
<rect x="211.5" y="103.5" width="279" height="51" rx="5.5" fill="black" stroke="#FBFBFB" stroke-width="3"/>
<path d="M256.38 120.248V122.96H251.916V137H248.556V122.96H244.092V120.248H256.38ZM262.192 125.768C262.624 125.064 263.184 124.512 263.872 124.112C264.576 123.712 265.376 123.512 266.272 123.512V127.04H265.384C264.328 127.04 263.528 127.288 262.984 127.784C262.456 128.28 262.192 129.144 262.192 130.376V137H258.832V123.704H262.192V125.768ZM267.671 130.304C267.671 128.96 267.935 127.768 268.463 126.728C269.007 125.688 269.735 124.888 270.647 124.328C271.575 123.768 272.607 123.488 273.743 123.488C274.735 123.488 275.599 123.688 276.335 124.088C277.087 124.488 277.687 124.992 278.135 125.6V123.704H281.519V137H278.135V135.056C277.703 135.68 277.103 136.2 276.335 136.616C275.583 137.016 274.711 137.216 273.719 137.216C272.599 137.216 271.575 136.928 270.647 136.352C269.735 135.776 269.007 134.968 268.463 133.928C267.935 132.872 267.671 131.664 267.671 130.304ZM278.135 130.352C278.135 129.536 277.975 128.84 277.655 128.264C277.335 127.672 276.903 127.224 276.359 126.92C275.815 126.6 275.231 126.44 274.607 126.44C273.983 126.44 273.407 126.592 272.879 126.896C272.351 127.2 271.919 127.648 271.583 128.24C271.263 128.816 271.103 129.504 271.103 130.304C271.103 131.104 271.263 131.808 271.583 132.416C271.919 133.008 272.351 133.464 272.879 133.784C273.423 134.104 273.999 134.264 274.607 134.264C275.231 134.264 275.815 134.112 276.359 133.808C276.903 133.488 277.335 133.04 277.655 132.464C277.975 131.872 278.135 131.168 278.135 130.352ZM292.169 123.512C293.753 123.512 295.033 124.016 296.009 125.024C296.985 126.016 297.473 127.408 297.473 129.2V137H294.113V129.656C294.113 128.6 293.849 127.792 293.321 127.232C292.793 126.656 292.073 126.368 291.161 126.368C290.233 126.368 289.497 126.656 288.953 127.232C288.425 127.792 288.161 128.6 288.161 129.656V137H284.801V123.704H288.161V125.36C288.609 124.784 289.177 124.336 289.865 124.016C290.569 123.68 291.337 123.512 292.169 123.512ZM305.756 137.216C304.668 137.216 303.692 137.024 302.828 136.64C301.964 136.24 301.276 135.704 300.764 135.032C300.268 134.36 299.996 133.616 299.948 132.8H303.332C303.396 133.312 303.644 133.736 304.076 134.072C304.524 134.408 305.076 134.576 305.732 134.576C306.372 134.576 306.868 134.448 307.22 134.192C307.588 133.936 307.772 133.608 307.772 133.208C307.772 132.776 307.548 132.456 307.1 132.248C306.668 132.024 305.972 131.784 305.012 131.528C304.02 131.288 303.204 131.04 302.564 130.784C301.94 130.528 301.396 130.136 300.932 129.608C300.484 129.08 300.26 128.368 300.26 127.472C300.26 126.736 300.468 126.064 300.884 125.456C301.316 124.848 301.924 124.368 302.708 124.016C303.508 123.664 304.444 123.488 305.516 123.488C307.1 123.488 308.364 123.888 309.308 124.688C310.252 125.472 310.772 126.536 310.868 127.88H307.652C307.604 127.352 307.38 126.936 306.98 126.632C306.596 126.312 306.076 126.152 305.42 126.152C304.812 126.152 304.34 126.264 304.004 126.488C303.684 126.712 303.524 127.024 303.524 127.424C303.524 127.872 303.748 128.216 304.196 128.456C304.644 128.68 305.34 128.912 306.284 129.152C307.244 129.392 308.036 129.64 308.66 129.896C309.284 130.152 309.82 130.552 310.268 131.096C310.732 131.624 310.972 132.328 310.988 133.208C310.988 133.976 310.772 134.664 310.34 135.272C309.924 135.88 309.316 136.36 308.516 136.712C307.732 137.048 306.812 137.216 305.756 137.216ZM317.106 119.24V137H313.746V119.24H317.106ZM319.562 130.304C319.562 128.96 319.826 127.768 320.354 126.728C320.898 125.688 321.626 124.888 322.538 124.328C323.466 123.768 324.498 123.488 325.634 123.488C326.626 123.488 327.49 123.688 328.226 124.088C328.978 124.488 329.578 124.992 330.026 125.6V123.704H333.41V137H330.026V135.056C329.594 135.68 328.994 136.2 328.226 136.616C327.474 137.016 326.602 137.216 325.61 137.216C324.49 137.216 323.466 136.928 322.538 136.352C321.626 135.776 320.898 134.968 320.354 133.928C319.826 132.872 319.562 131.664 319.562 130.304ZM330.026 130.352C330.026 129.536 329.866 128.84 329.546 128.264C329.226 127.672 328.794 127.224 328.25 126.92C327.706 126.6 327.122 126.44 326.498 126.44C325.874 126.44 325.298 126.592 324.77 126.896C324.242 127.2 323.81 127.648 323.474 128.24C323.154 128.816 322.994 129.504 322.994 130.304C322.994 131.104 323.154 131.808 323.474 132.416C323.81 133.008 324.242 133.464 324.77 133.784C325.314 134.104 325.89 134.264 326.498 134.264C327.122 134.264 327.706 134.112 328.25 133.808C328.794 133.488 329.226 133.04 329.546 132.464C329.866 131.872 330.026 131.168 330.026 130.352ZM340.603 126.464V132.896C340.603 133.344 340.707 133.672 340.915 133.88C341.139 134.072 341.507 134.168 342.019 134.168H343.579V137H341.467C338.635 137 337.219 135.624 337.219 132.872V126.464H335.635V123.704H337.219V120.416H340.603V123.704H343.579V126.464H340.603ZM347.7 122.12C347.108 122.12 346.612 121.936 346.212 121.568C345.828 121.184 345.636 120.712 345.636 120.152C345.636 119.592 345.828 119.128 346.212 118.76C346.612 118.376 347.108 118.184 347.7 118.184C348.292 118.184 348.78 118.376 349.164 118.76C349.564 119.128 349.764 119.592 349.764 120.152C349.764 120.712 349.564 121.184 349.164 121.568C348.78 121.936 348.292 122.12 347.7 122.12ZM349.356 123.704V137H345.996V123.704H349.356ZM358.58 137.216C357.3 137.216 356.148 136.936 355.124 136.376C354.1 135.8 353.292 134.992 352.7 133.952C352.124 132.912 351.836 131.712 351.836 130.352C351.836 128.992 352.132 127.792 352.724 126.752C353.332 125.712 354.156 124.912 355.196 124.352C356.236 123.776 357.396 123.488 358.676 123.488C359.956 123.488 361.116 123.776 362.156 124.352C363.196 124.912 364.012 125.712 364.604 126.752C365.212 127.792 365.516 128.992 365.516 130.352C365.516 131.712 365.204 132.912 364.58 133.952C363.972 134.992 363.14 135.8 362.084 136.376C361.044 136.936 359.876 137.216 358.58 137.216ZM358.58 134.288C359.188 134.288 359.756 134.144 360.284 133.856C360.828 133.552 361.26 133.104 361.58 132.512C361.9 131.92 362.06 131.2 362.06 130.352C362.06 129.088 361.724 128.12 361.052 127.448C360.396 126.76 359.588 126.416 358.628 126.416C357.668 126.416 356.86 126.76 356.204 127.448C355.564 128.12 355.244 129.088 355.244 130.352C355.244 131.616 355.556 132.592 356.18 133.28C356.82 133.952 357.62 134.288 358.58 134.288ZM375.348 123.512C376.932 123.512 378.212 124.016 379.188 125.024C380.164 126.016 380.652 127.408 380.652 129.2V137H377.292V129.656C377.292 128.6 377.028 127.792 376.5 127.232C375.972 126.656 375.252 126.368 374.34 126.368C373.412 126.368 372.676 126.656 372.132 127.232C371.604 127.792 371.34 128.6 371.34 129.656V137H367.98V123.704H371.34V125.36C371.788 124.784 372.356 124.336 373.044 124.016C373.748 123.68 374.516 123.512 375.348 123.512ZM388.75 128.6C388.75 126.952 389.118 125.48 389.854 124.184C390.606 122.872 391.622 121.856 392.902 121.136C394.198 120.4 395.646 120.032 397.246 120.032C399.118 120.032 400.758 120.512 402.166 121.472C403.574 122.432 404.558 123.76 405.118 125.456H401.254C400.87 124.656 400.326 124.056 399.622 123.656C398.934 123.256 398.134 123.056 397.222 123.056C396.246 123.056 395.374 123.288 394.606 123.752C393.854 124.2 393.262 124.84 392.83 125.672C392.414 126.504 392.206 127.48 392.206 128.6C392.206 129.704 392.414 130.68 392.83 131.528C393.262 132.36 393.854 133.008 394.606 133.472C395.374 133.92 396.246 134.144 397.222 134.144C398.134 134.144 398.934 133.944 399.622 133.544C400.326 133.128 400.87 132.52 401.254 131.72H405.118C404.558 133.432 403.574 134.768 402.166 135.728C400.774 136.672 399.134 137.144 397.246 137.144C395.646 137.144 394.198 136.784 392.902 136.064C391.622 135.328 390.606 134.312 389.854 133.016C389.118 131.72 388.75 130.248 388.75 128.6ZM411.348 119.24V137H407.988V119.24H411.348ZM416.372 122.12C415.78 122.12 415.284 121.936 414.884 121.568C414.5 121.184 414.308 120.712 414.308 120.152C414.308 119.592 414.5 119.128 414.884 118.76C415.284 118.376 415.78 118.184 416.372 118.184C416.964 118.184 417.452 118.376 417.836 118.76C418.236 119.128 418.436 119.592 418.436 120.152C418.436 120.712 418.236 121.184 417.836 121.568C417.452 121.936 416.964 122.12 416.372 122.12ZM418.028 123.704V137H414.668V123.704H418.028ZM433.707 130.064C433.707 130.544 433.675 130.976 433.611 131.36H423.891C423.971 132.32 424.307 133.072 424.899 133.616C425.491 134.16 426.219 134.432 427.083 134.432C428.331 134.432 429.219 133.896 429.747 132.824H433.371C432.987 134.104 432.251 135.16 431.163 135.992C430.075 136.808 428.739 137.216 427.155 137.216C425.875 137.216 424.723 136.936 423.699 136.376C422.691 135.8 421.899 134.992 421.323 133.952C420.763 132.912 420.483 131.712 420.483 130.352C420.483 128.976 420.763 127.768 421.323 126.728C421.883 125.688 422.667 124.888 423.675 124.328C424.683 123.768 425.843 123.488 427.155 123.488C428.419 123.488 429.547 123.76 430.539 124.304C431.547 124.848 432.323 125.624 432.867 126.632C433.427 127.624 433.707 128.768 433.707 130.064ZM430.227 129.104C430.211 128.24 429.899 127.552 429.291 127.04C428.683 126.512 427.939 126.248 427.059 126.248C426.227 126.248 425.523 126.504 424.947 127.016C424.387 127.512 424.043 128.208 423.915 129.104H430.227ZM443.528 123.512C445.112 123.512 446.392 124.016 447.368 125.024C448.344 126.016 448.832 127.408 448.832 129.2V137H445.472V129.656C445.472 128.6 445.208 127.792 444.68 127.232C444.152 126.656 443.432 126.368 442.52 126.368C441.592 126.368 440.856 126.656 440.312 127.232C439.784 127.792 439.52 128.6 439.52 129.656V137H436.16V123.704H439.52V125.36C439.968 124.784 440.536 124.336 441.224 124.016C441.928 123.68 442.696 123.512 443.528 123.512ZM455.939 126.464V132.896C455.939 133.344 456.043 133.672 456.251 133.88C456.475 134.072 456.843 134.168 457.355 134.168H458.915V137H456.803C453.971 137 452.555 135.624 452.555 132.872V126.464H450.971V123.704H452.555V120.416H455.939V123.704H458.915V126.464H455.939Z" fill="white"/>
</svg>
